<?xml version="1.0" encoding="utf-8"?>
<!-- Generator: Adobe Illustrator 19.0.0, SVG Export Plug-In . SVG Version: 6.00 Build 0)  -->
<svg version="1.1" id="Layer_1" xmlns="http://www.w3.org/2000/svg" xmlns:xlink="http://www.w3.org/1999/xlink" x="0px" y="0px"
	 viewBox="0 0 396.3 86.5" style="enable-background:new 0 0 396.3 86.5;" xml:space="preserve">
<style type="text/css">
	.st0{fill:#252525;}
</style>
<g>
	<g>
		<g>
			<path class="st0" d="M387.6,69.2c-4.2,0-7.7,3-8.5,7H342c-0.8-4-4.3-7-8.5-7c-4.2,0-7.7,3-8.5,7h-37.1c-0.8-4-4.3-7-8.5-7
				c-4.2,0-7.7,3-8.5,7h-37.1c-0.8-4-4.3-7-8.5-7c-4.2,0-7.7,3-8.5,7h-37.1c-0.8-4-4.3-7-8.5-7c-4.2,0-7.7,3-8.5,7h-37.1
				c-0.8-4-4.3-7-8.5-7c-4.2,0-7.7,3-8.5,7H71.3c-0.8-4-4.3-7-8.5-7s-7.7,3-8.5,7H17.2c-0.8-4-4.3-7-8.5-7c-4.8,0-8.7,3.9-8.7,8.7
				c0,4.8,3.9,8.7,8.7,8.7c4.2,0,7.7-3,8.5-7h37.1c0.8,4,4.3,7,8.5,7s7.7-3,8.5-7h37.1c0.8,4,4.3,7,8.5,7c4.2,0,7.7-3,8.5-7h37.1
				c0.8,4,4.3,7,8.5,7s7.7-3,8.5-7h37.1c0.8,4,4.3,7,8.5,7c4.2,0,7.7-3,8.5-7h37.1c0.8,4,4.3,7,8.5,7c4.2,0,7.7-3,8.5-7H325
				c0.8,4,4.3,7,8.5,7c4.2,0,7.7-3,8.5-7h37.1c0.8,4,4.3,7,8.5,7c4.8,0,8.7-3.9,8.7-8.7C396.3,73.1,392.4,69.2,387.6,69.2z
				 M62.8,83.3c-3,0-5.4-2.4-5.4-5.4c0-3,2.4-5.4,5.4-5.4c3,0,5.4,2.4,5.4,5.4C68.2,80.9,65.8,83.3,62.8,83.3z M171.1,83.3
				c-3,0-5.4-2.4-5.4-5.4c0-3,2.4-5.4,5.4-5.4s5.4,2.4,5.4,5.4C176.5,80.9,174.1,83.3,171.1,83.3z M279.3,83.3c-3,0-5.4-2.4-5.4-5.4
				c0-3,2.4-5.4,5.4-5.4c3,0,5.4,2.4,5.4,5.4C284.8,80.9,282.3,83.3,279.3,83.3z M387.6,83.3c-3,0-5.4-2.4-5.4-5.4
				c0-3,2.4-5.4,5.4-5.4s5.4,2.4,5.4,5.4C393,80.9,390.6,83.3,387.6,83.3z"/>
		</g>
	</g>
	<g>
		<path class="st0" d="M137.4,55.9V0h47.9c4.4,0,7.6,0.9,9.6,2.6c2,1.7,3,4.5,3,8.3v6.8c0,2.7-0.8,4.8-2.5,6.4c-1.7,1.6-4,2.6-7.1,3
			c3.2,0.4,5.7,1.6,7.4,3.4c1.7,1.9,2.6,4.3,2.6,7.3V45c0,3.7-1.4,6.5-4.1,8.3c-2.7,1.8-6.8,2.7-12.4,2.7H137.4z M179.8,9.1h-29.7
			v13.3h29.7c2.3,0,3.8-0.3,4.7-0.9c0.9-0.6,1.3-1.6,1.3-3.1v-5.3c0-1.4-0.4-2.5-1.3-3.1C183.7,9.4,182.1,9.1,179.8,9.1z
			 M179.8,31.6h-29.7v14.2h29.7c2.5,0,4.1-0.4,5-1.1c0.9-0.7,1.3-2,1.3-3.9v-4.2c0-1.9-0.4-3.2-1.3-3.9
			C184,32,182.3,31.6,179.8,31.6z"/>
		<polygon class="st0" points="296,55.9 310,55.9 310,33.8 335.1,0 319.8,0 303.7,21.7 287.6,0 271.2,0 296,33.8 		"/>
		<polygon class="st0" points="93.5,55.9 107.5,55.9 107.5,33.8 132.7,0 117.3,0 101.2,21.7 85.2,0 68.7,0 93.5,33.8 		"/>
		<path class="st0" d="M383.4,55.9c7.7,0,12.9-4.2,12.9-13.3v-7.7c0-8-4.2-13.3-12.9-13.3h-33.5V11.2h45.5V0h-46.5
			c-8,0-12.9,4.5-12.9,13.3v7c0,7.7,4.5,12.9,12.9,12.9h33.5v11.5h-45.6v11.2"/>
		<path class="st0" d="M255.6,55.9c7.7,0,12.9-4.2,12.9-13.3v-7.7c0-8-4.2-13.3-12.9-13.3h-33.5V11.2h45.5V0H221
			c-8,0-12.9,4.5-12.9,13.3v7c0,7.7,4.5,12.9,12.9,12.9h33.5v11.5h-45.6v11.2"/>
		<polygon class="st0" points="0,55.9 12.9,55.9 12.9,16.1 55.2,55.9 63.9,55.9 63.9,0 51,0 51,33.5 15.7,0 0,0 		"/>
	</g>
</g>
</svg>
