<?xml version="1.0" ?><svg viewBox="0 0 64 64" xmlns="http://www.w3.org/2000/svg"><g id="outline"><path d="M22,46V43h3a1,1,0,0,0,1-1V25c0-.022-.011-.04-.012-.062a.992.992,0,0,0-.054-.264.948.948,0,0,0-.033-.094,1.013,1.013,0,0,0-.191-.284l0,0-6-6,0,0a.98.98,0,0,0-.285-.192.882.882,0,0,0-.086-.031.989.989,0,0,0-.278-.056c-.019,0-.035-.011-.054-.011H7a1,1,0,0,0-1,1v3H3a1,1,0,0,0-1,1V46a1,1,0,0,0,1,1H21A1,1,0,0,0,22,46ZM20,21.414,22.586,24H20ZM8,23V20H18v5a1,1,0,0,0,1,1h5V41H8ZM20,45H4V24H6V42a1,1,0,0,0,1,1H20Z"/><path d="M61.934,27.674a.948.948,0,0,0-.033-.094,1.013,1.013,0,0,0-.191-.284l0,0-6-6,0,0a1,1,0,0,0-.285-.192.814.814,0,0,0-.087-.031.975.975,0,0,0-.277-.056c-.019,0-.035-.011-.054-.011H43a1,1,0,0,0-1,1V45a1,1,0,0,0,1,1H61a1,1,0,0,0,1-1V28c0-.022-.011-.04-.012-.062A.992.992,0,0,0,61.934,27.674ZM56,24.414,58.586,27H56ZM60,44H44V23H54v5a1,1,0,0,0,1,1h5Z"/><rect height="2" width="7" x="10" y="27"/><rect height="2" width="12" x="10" y="31"/><rect height="2" width="12" x="10" y="35"/><path d="M47,35a4.821,4.821,0,0,0,.086.854c.019.108.042.213.067.319.041.16.092.318.148.475a4.99,4.99,0,0,0,.308.692c.04.075.072.152.116.225h0c.009.016.021.029.031.045.082.134.172.26.266.385.083.11.171.214.261.316s.158.188.247.274a4.833,4.833,0,0,0,.592.489c.068.048.138.092.208.137a5.041,5.041,0,0,0,.654.356c.032.014.062.032.095.046a4.947,4.947,0,0,0,.826.257c.065.014.129.026.2.038a4.5,4.5,0,0,0,1.8,0c.066-.012.13-.024.2-.038a4.947,4.947,0,0,0,.826-.257c.033-.014.063-.032.095-.046a5.041,5.041,0,0,0,.654-.356c.07-.045.14-.089.208-.137a4.919,4.919,0,0,0,.593-.489c.088-.085.163-.181.245-.273s.179-.207.262-.318a4.6,4.6,0,0,0,.266-.384c.01-.016.022-.029.031-.045s.007-.024.013-.035A4.951,4.951,0,0,0,57,35a5,5,0,0,0-10,0Zm2.063.6A2.839,2.839,0,0,1,49,35a2.941,2.941,0,0,1,.056-.551c.01-.056.026-.109.04-.164a2.96,2.96,0,0,1,.112-.361c.022-.056.044-.112.069-.166a2.991,2.991,0,0,1,.184-.339c.026-.041.049-.085.076-.125a3.14,3.14,0,0,1,.333-.4c.021-.021.045-.038.066-.058a3.017,3.017,0,0,1,.338-.279c.046-.032.094-.061.141-.091a2.9,2.9,0,0,1,.329-.178c.051-.024.1-.049.156-.07.032-.012.067-.019.1-.031v2.25ZM53,32.184A2.986,2.986,0,0,1,54.94,35.6L53,34.434Zm.9,5.12-.053.044a2.769,2.769,0,0,1-.331.227c-.027.016-.056.03-.084.046a3.112,3.112,0,0,1-2.86,0c-.028-.016-.057-.03-.084-.046a2.769,2.769,0,0,1-.331-.227l-.052-.043L52,36.166Z"/><path d="M46,16h5a1,1,0,0,0,1-1V10H50v2.883a26.989,26.989,0,0,0-37.483,1.425l1.443,1.384A24.994,24.994,0,0,1,48.243,14H46Z"/><path d="M18.239,49h-5a1,1,0,0,0-1,1v5h2V52.117a26.989,26.989,0,0,0,37.483-1.425l-1.444-1.384A24.994,24.994,0,0,1,16,51h2.244Z"/></g></svg>